<svg xmlns="http://www.w3.org/2000/svg" width="902.5603906250001" height="100.0"><line x1="30.0" x2="872.5603906250001" y1="25.0" y2="25.0" stroke="#1967d2" stroke-width="1" /><line x1="30.0" x2="872.5603906250001" y1="75.0" y2="75.0" stroke="#1967d2" stroke-width="1" /><line x1="175.96609375" x2="175.96609375" y1="25.0" y2="75.0" stroke="black" stroke-width="3" /><line x1="295.96609375" x2="295.96609375" y1="25.0" y2="75.0" stroke="black" stroke-width="3" /><line x1="415.96609375" x2="415.96609375" y1="25.0" y2="75.0" stroke="black" stroke-width="3" /><line x1="626.594296875" x2="626.594296875" y1="25.0" y2="75.0" stroke="black" stroke-width="3" /><line x1="772.5603906250001" x2="772.5603906250001" y1="25.0" y2="75.0" stroke="black" stroke-width="3" /><rect x="10.0" y="5.0" width="40" height="40" stroke="black" fill="white" stroke-width="0" /><text x="30.0" y="25.0" dominant-baseline="middle" text-anchor="middle" font-size="14px" font-family="Arial">0: </text><rect x="10.0" y="55.0" width="40" height="40" stroke="black" fill="white" stroke-width="0" /><text x="30.0" y="75.0" dominant-baseline="middle" text-anchor="middle" font-size="14px" font-family="Arial">1: </text><rect x="70.0" y="5.0" width="65.96609375" height="40" stroke="black" fill="white" stroke-width="1" /><text x="102.983046875" y="25.0" dominant-baseline="middle" text-anchor="middle" font-size="14px" font-family="Arial">Ry(theta)</text><circle cx="175.96609375" cy="25.0" r="10.0" /><rect x="155.96609375" y="55.0" width="40" height="40" stroke="black" fill="white" stroke-width="1" /><text x="175.96609375" y="75.0" dominant-baseline="middle" text-anchor="middle" font-size="18px" font-family="Arial">H</text><rect x="215.96609375" y="55.0" width="40" height="40" stroke="black" fill="white" stroke-width="1" /><text x="235.96609375" y="75.0" dominant-baseline="middle" text-anchor="middle" font-size="18px" font-family="Arial">X</text><circle cx="295.96609375" cy="25.0" r="10.0" /><circle cx="295.96609375" cy="75.0" r="10.0" /><rect x="335.96609375" y="55.0" width="40" height="40" stroke="black" fill="white" stroke-width="1" /><text x="355.96609375" y="75.0" dominant-baseline="middle" text-anchor="middle" font-size="18px" font-family="Arial">X</text><circle cx="415.96609375" cy="25.0" r="10.0" /><rect x="395.96609375" y="55.0" width="40" height="40" stroke="black" fill="white" stroke-width="1" /><text x="415.96609375" y="75.0" dominant-baseline="middle" text-anchor="middle" font-size="18px" font-family="Arial">H</text><rect x="455.96609375" y="5.0" width="70.628203125" height="40" stroke="black" fill="white" stroke-width="1" /><text x="491.28019531250004" y="25.0" dominant-baseline="middle" text-anchor="middle" font-size="14px" font-family="Arial">Ry(-theta)</text><rect x="455.96609375" y="55.0" width="70.628203125" height="40" stroke="black" fill="white" stroke-width="1" /><text x="491.28019531250004" y="75.0" dominant-baseline="middle" text-anchor="middle" font-size="18px" font-family="Arial">Z</text><rect x="546.594296875" y="5.0" width="40" height="40" stroke="black" fill="white" stroke-width="1" /><text x="566.594296875" y="25.0" dominant-baseline="middle" text-anchor="middle" font-size="18px" font-family="Arial">Z</text><circle cx="626.594296875" cy="25.0" r="10.0" /><circle cx="626.594296875" cy="75.0" r="10.0" /><rect x="666.594296875" y="5.0" width="65.96609375" height="40" stroke="black" fill="white" stroke-width="1" /><text x="699.5773437500001" y="25.0" dominant-baseline="middle" text-anchor="middle" font-size="14px" font-family="Arial">Ry(theta)</text><circle cx="772.5603906250001" cy="25.0" r="10.0" /><rect x="752.5603906250001" y="55.0" width="40" height="40" stroke="black" fill="white" stroke-width="1" /><text x="772.5603906250001" y="75.0" dominant-baseline="middle" text-anchor="middle" font-size="18px" font-family="Arial">H</text><rect x="812.5603906250001" y="55.0" width="40" height="40" stroke="black" fill="white" stroke-width="1" /><text x="832.5603906250001" y="75.0" dominant-baseline="middle" text-anchor="middle" font-size="18px" font-family="Arial">X</text></svg>