<svg xmlns="http://www.w3.org/2000/svg" width="778.5271875000001" height="200.0"><line x1="30.0" x2="748.5271875000001" y1="25.0" y2="25.0" stroke="#1967d2" stroke-width="1" /><line x1="30.0" x2="748.5271875000001" y1="75.0" y2="75.0" stroke="#1967d2" stroke-width="1" /><line x1="30.0" x2="748.5271875000001" y1="125.0" y2="125.0" stroke="#1967d2" stroke-width="1" /><line x1="30.0" x2="748.5271875000001" y1="175.0" y2="175.0" stroke="#1967d2" stroke-width="1" /><line x1="233.9494921875" x2="233.9494921875" y1="25.0" y2="75.0" stroke="black" stroke-width="3" /><line x1="293.9494921875" x2="293.9494921875" y1="75.0" y2="125.0" stroke="black" stroke-width="3" /><line x1="353.9494921875" x2="353.9494921875" y1="125.0" y2="175.0" stroke="black" stroke-width="3" /><line x1="499.91558593750005" x2="499.91558593750005" y1="125.0" y2="175.0" stroke="black" stroke-width="3" /><line x1="559.9155859375" x2="559.9155859375" y1="75.0" y2="125.0" stroke="black" stroke-width="3" /><line x1="619.9155859375" x2="619.9155859375" y1="25.0" y2="75.0" stroke="black" stroke-width="3" /><rect x="10.0" y="5.0" width="40" height="40" stroke="black" fill="white" stroke-width="0" /><text x="30.0" y="25.0" dominant-baseline="middle" text-anchor="middle" font-size="14px" font-family="Arial">0: </text><rect x="10.0" y="55.0" width="40" height="40" stroke="black" fill="white" stroke-width="0" /><text x="30.0" y="75.0" dominant-baseline="middle" text-anchor="middle" font-size="14px" font-family="Arial">1: </text><rect x="10.0" y="105.0" width="40" height="40" stroke="black" fill="white" stroke-width="0" /><text x="30.0" y="125.0" dominant-baseline="middle" text-anchor="middle" font-size="14px" font-family="Arial">2: </text><rect x="10.0" y="155.0" width="40" height="40" stroke="black" fill="white" stroke-width="0" /><text x="30.0" y="175.0" dominant-baseline="middle" text-anchor="middle" font-size="14px" font-family="Arial">3: </text><rect x="70.0" y="5.0" width="40" height="40" stroke="black" fill="white" stroke-width="1" /><text x="90.0" y="25.0" dominant-baseline="middle" text-anchor="middle" font-size="18px" font-family="Arial">X</text><rect x="70.0" y="105.0" width="40" height="40" stroke="black" fill="white" stroke-width="1" /><text x="90.0" y="125.0" dominant-baseline="middle" text-anchor="middle" font-size="18px" font-family="Arial">X</text><rect x="70.0" y="55.0" width="40" height="40" stroke="black" fill="white" stroke-width="1" /><text x="90.0" y="75.0" dominant-baseline="middle" text-anchor="middle" font-size="18px" font-family="Arial">H</text><rect x="70.0" y="155.0" width="40" height="40" stroke="black" fill="white" stroke-width="1" /><text x="90.0" y="175.0" dominant-baseline="middle" text-anchor="middle" font-size="18px" font-family="Arial">H</text><rect x="130.0" y="5.0" width="63.9494921875" height="40" stroke="black" fill="white" stroke-width="1" /><text x="161.97474609375" y="25.0" dominant-baseline="middle" text-anchor="middle" font-size="14px" font-family="Arial">Rx(0.5π)</text><rect x="130.0" y="105.0" width="63.9494921875" height="40" stroke="black" fill="white" stroke-width="1" /><text x="161.97474609375" y="125.0" dominant-baseline="middle" text-anchor="middle" font-size="18px" font-family="Arial">H</text><circle cx="233.9494921875" cy="25.0" r="10.0" /><rect x="213.9494921875" y="55.0" width="40" height="40" stroke="black" fill="white" stroke-width="1" /><text x="233.9494921875" y="75.0" dominant-baseline="middle" text-anchor="middle" font-size="18px" font-family="Arial">X</text><circle cx="293.9494921875" cy="75.0" r="10.0" /><rect x="273.9494921875" y="105.0" width="40" height="40" stroke="black" fill="white" stroke-width="1" /><text x="293.9494921875" y="125.0" dominant-baseline="middle" text-anchor="middle" font-size="18px" font-family="Arial">X</text><circle cx="353.9494921875" cy="125.0" r="10.0" /><rect x="333.9494921875" y="155.0" width="40" height="40" stroke="black" fill="white" stroke-width="1" /><text x="353.9494921875" y="175.0" dominant-baseline="middle" text-anchor="middle" font-size="18px" font-family="Arial">X</text><rect x="393.9494921875" y="155.0" width="65.96609375" height="40" stroke="black" fill="white" stroke-width="1" /><text x="426.93253906250004" y="175.0" dominant-baseline="middle" text-anchor="middle" font-size="14px" font-family="Arial">Rz(theta)</text><circle cx="499.91558593750005" cy="125.0" r="10.0" /><rect x="479.91558593750005" y="155.0" width="40" height="40" stroke="black" fill="white" stroke-width="1" /><text x="499.91558593750005" y="175.0" dominant-baseline="middle" text-anchor="middle" font-size="18px" font-family="Arial">X</text><circle cx="559.9155859375" cy="75.0" r="10.0" /><rect x="539.9155859375" y="105.0" width="40" height="40" stroke="black" fill="white" stroke-width="1" /><text x="559.9155859375" y="125.0" dominant-baseline="middle" text-anchor="middle" font-size="18px" font-family="Arial">X</text><rect x="539.9155859375" y="155.0" width="40" height="40" stroke="black" fill="white" stroke-width="1" /><text x="559.9155859375" y="175.0" dominant-baseline="middle" text-anchor="middle" font-size="18px" font-family="Arial">H</text><circle cx="619.9155859375" cy="25.0" r="10.0" /><rect x="599.9155859375" y="55.0" width="40" height="40" stroke="black" fill="white" stroke-width="1" /><text x="619.9155859375" y="75.0" dominant-baseline="middle" text-anchor="middle" font-size="18px" font-family="Arial">X</text><rect x="599.9155859375" y="105.0" width="40" height="40" stroke="black" fill="white" stroke-width="1" /><text x="619.9155859375" y="125.0" dominant-baseline="middle" text-anchor="middle" font-size="18px" font-family="Arial">H</text><rect x="659.9155859375" y="55.0" width="68.6116015625" height="40" stroke="black" fill="white" stroke-width="1" /><text x="694.2213867187501" y="75.0" dominant-baseline="middle" text-anchor="middle" font-size="18px" font-family="Arial">H</text><rect x="659.9155859375" y="5.0" width="68.6116015625" height="40" stroke="black" fill="white" stroke-width="1" /><text x="694.2213867187501" y="25.0" dominant-baseline="middle" text-anchor="middle" font-size="14px" font-family="Arial">Rx(-0.5π)</text></svg>