<svg xmlns="http://www.w3.org/2000/svg" width="989.8353125" height="390.0"><line x1="30.0" x2="959.8353125" y1="45.0" y2="45.0" stroke="#1967d2" stroke-width="1" /><line x1="30.0" x2="959.8353125" y1="95.0" y2="95.0" stroke="#1967d2" stroke-width="1" /><line x1="30.0" x2="959.8353125" y1="145.0" y2="145.0" stroke="#1967d2" stroke-width="1" /><line x1="30.0" x2="959.8353125" y1="195.0" y2="195.0" stroke="#1967d2" stroke-width="1" /><line x1="30.0" x2="959.8353125" y1="245.0" y2="245.0" stroke="#1967d2" stroke-width="1" /><line x1="30.0" x2="959.8353125" y1="295.0" y2="295.0" stroke="#1967d2" stroke-width="1" /><line x1="30.0" x2="959.8353125" y1="345.0" y2="345.0" stroke="#1967d2" stroke-width="1" /><line x1="673.7435937500001" x2="779.593046875" y1="5.0" y2="5.0" stroke="black" stroke-width="1" /><line x1="673.7435937500001" x2="779.593046875" y1="385.0" y2="385.0" stroke="black" stroke-width="1" /><line x1="356.9929296875" x2="462.84238281250003" y1="5.0" y2="5.0" stroke="black" stroke-width="1" /><line x1="356.9929296875" x2="462.84238281250003" y1="385.0" y2="385.0" stroke="black" stroke-width="1" /><line x1="155.19050781250002" x2="286.9929296875" y1="5.0" y2="5.0" stroke="black" stroke-width="1" /><line x1="155.19050781250002" x2="286.9929296875" y1="385.0" y2="385.0" stroke="black" stroke-width="1" /><line x1="185.64111328125003" x2="185.64111328125003" y1="95.0" y2="345.0" stroke="black" stroke-width="3" /><line x1="246.54232421875003" x2="246.54232421875003" y1="145.0" y2="195.0" stroke="black" stroke-width="3" /><line x1="326.9929296875" x2="326.9929296875" y1="45.0" y2="345.0" stroke="black" stroke-width="3" /><line x1="376.9929296875" x2="376.9929296875" y1="45.0" y2="245.0" stroke="black" stroke-width="3" /><line x1="424.91765625" x2="424.91765625" y1="95.0" y2="345.0" stroke="black" stroke-width="3" /><line x1="502.84238281250003" x2="502.84238281250003" y1="45.0" y2="295.0" stroke="black" stroke-width="3" /><line x1="562.8423828125001" x2="562.8423828125001" y1="45.0" y2="195.0" stroke="black" stroke-width="3" /><line x1="633.2929882812501" x2="633.2929882812501" y1="145.0" y2="195.0" stroke="black" stroke-width="3" /><line x1="633.2929882812501" x2="633.2929882812501" y1="45.0" y2="95.0" stroke="black" stroke-width="3" /><line x1="701.6683203125001" x2="701.6683203125001" y1="45.0" y2="145.0" stroke="black" stroke-width="3" /><line x1="673.7435937500001" x2="673.7435937500001" y1="5.0" y2="15.0" stroke="black" stroke-width="3" /><line x1="779.593046875" x2="779.593046875" y1="5.0" y2="15.0" stroke="black" stroke-width="3" /><line x1="673.7435937500001" x2="673.7435937500001" y1="375.0" y2="385.0" stroke="black" stroke-width="3" /><line x1="779.593046875" x2="779.593046875" y1="375.0" y2="385.0" stroke="black" stroke-width="3" /><line x1="356.9929296875" x2="356.9929296875" y1="5.0" y2="15.0" stroke="black" stroke-width="3" /><line x1="462.84238281250003" x2="462.84238281250003" y1="5.0" y2="15.0" stroke="black" stroke-width="3" /><line x1="356.9929296875" x2="356.9929296875" y1="375.0" y2="385.0" stroke="black" stroke-width="3" /><line x1="462.84238281250003" x2="462.84238281250003" y1="375.0" y2="385.0" stroke="black" stroke-width="3" /><line x1="155.19050781250002" x2="155.19050781250002" y1="5.0" y2="15.0" stroke="black" stroke-width="3" /><line x1="286.9929296875" x2="286.9929296875" y1="5.0" y2="15.0" stroke="black" stroke-width="3" /><line x1="155.19050781250002" x2="155.19050781250002" y1="375.0" y2="385.0" stroke="black" stroke-width="3" /><line x1="286.9929296875" x2="286.9929296875" y1="375.0" y2="385.0" stroke="black" stroke-width="3" /><rect x="10.0" y="25.0" width="40" height="40" stroke="black" fill="white" stroke-width="0" /><text x="30.0" y="45.0" dominant-baseline="middle" text-anchor="middle" font-size="14px" font-family="sans\-serif:style=normal:variant=normal:weight=normal:stretch=normal:size=10.0">0: </text><rect x="10.0" y="75.0" width="40" height="40" stroke="black" fill="white" stroke-width="0" /><text x="30.0" y="95.0" dominant-baseline="middle" text-anchor="middle" font-size="14px" font-family="sans\-serif:style=normal:variant=normal:weight=normal:stretch=normal:size=10.0">1: </text><rect x="10.0" y="125.0" width="40" height="40" stroke="black" fill="white" stroke-width="0" /><text x="30.0" y="145.0" dominant-baseline="middle" text-anchor="middle" font-size="14px" font-family="sans\-serif:style=normal:variant=normal:weight=normal:stretch=normal:size=10.0">2: </text><rect x="10.0" y="175.0" width="40" height="40" stroke="black" fill="white" stroke-width="0" /><text x="30.0" y="195.0" dominant-baseline="middle" text-anchor="middle" font-size="14px" font-family="sans\-serif:style=normal:variant=normal:weight=normal:stretch=normal:size=10.0">3: </text><rect x="10.0" y="225.0" width="40" height="40" stroke="black" fill="white" stroke-width="0" /><text x="30.0" y="245.0" dominant-baseline="middle" text-anchor="middle" font-size="14px" font-family="sans\-serif:style=normal:variant=normal:weight=normal:stretch=normal:size=10.0">4: </text><rect x="10.0" y="275.0" width="40" height="40" stroke="black" fill="white" stroke-width="0" /><text x="30.0" y="295.0" dominant-baseline="middle" text-anchor="middle" font-size="14px" font-family="sans\-serif:style=normal:variant=normal:weight=normal:stretch=normal:size=10.0">5: </text><rect x="10.0" y="325.0" width="40" height="40" stroke="black" fill="white" stroke-width="0" /><text x="30.0" y="345.0" dominant-baseline="middle" text-anchor="middle" font-size="14px" font-family="sans\-serif:style=normal:variant=normal:weight=normal:stretch=normal:size=10.0">6: </text><rect x="70.0" y="75.0" width="75.1905078125" height="40" stroke="black" fill="white" stroke-width="1" /><text x="107.59525390625001" y="95.0" dominant-baseline="middle" text-anchor="middle" font-size="18px" font-family="sans\-serif:style=normal:variant=normal:weight=normal:stretch=normal:size=10.0">H</text><rect x="70.0" y="125.0" width="75.1905078125" height="40" stroke="black" fill="white" stroke-width="1" /><text x="107.59525390625001" y="145.0" dominant-baseline="middle" text-anchor="middle" font-size="18px" font-family="sans\-serif:style=normal:variant=normal:weight=normal:stretch=normal:size=10.0">H</text><rect x="70.0" y="25.0" width="75.1905078125" height="40" stroke="black" fill="white" stroke-width="1" /><text x="107.59525390625001" y="45.0" dominant-baseline="middle" text-anchor="middle" font-size="14px" font-family="sans\-serif:style=normal:variant=normal:weight=normal:stretch=normal:size=10.0">Ry(0.02π)</text><rect x="155.19050781250002" y="25.0" width="60.901210937500004" height="40" stroke="black" fill="white" stroke-width="1" /><text x="185.64111328125003" y="45.0" dominant-baseline="middle" text-anchor="middle" font-size="14px" font-family="sans\-serif:style=normal:variant=normal:weight=normal:stretch=normal:size=10.0">Z^0</text><circle cx="185.64111328125003" cy="95.0" r="10.0" /><rect x="155.19050781250002" y="325.0" width="60.901210937500004" height="40" stroke="black" fill="white" stroke-width="1" /><text x="185.64111328125003" y="345.0" dominant-baseline="middle" text-anchor="middle" font-size="14px" font-family="sans\-serif:style=normal:variant=normal:weight=normal:stretch=normal:size=10.0">@^-0.5</text><circle cx="246.54232421875003" cy="145.0" r="10.0" /><rect x="216.09171875" y="175.0" width="60.901210937500004" height="40" stroke="black" fill="white" stroke-width="1" /><text x="246.54232421875003" y="195.0" dominant-baseline="middle" text-anchor="middle" font-size="14px" font-family="sans\-serif:style=normal:variant=normal:weight=normal:stretch=normal:size=10.0">@^-0.5</text><circle cx="326.9929296875" cy="45.0" r="10.0" /><rect x="306.9929296875" y="325.0" width="40" height="40" stroke="black" fill="white" stroke-width="1" /><text x="326.9929296875" y="345.0" dominant-baseline="middle" text-anchor="middle" font-size="18px" font-family="sans\-serif:style=normal:variant=normal:weight=normal:stretch=normal:size=10.0">X</text><circle cx="376.9929296875" cy="45.0" r="10.0" /><circle cx="376.9929296875" cy="245.0" r="10.0" /><circle cx="424.91765625" cy="95.0" r="10.0" /><rect x="396.9929296875" y="325.0" width="55.849453125000004" height="40" stroke="black" fill="white" stroke-width="1" /><text x="424.91765625" y="345.0" dominant-baseline="middle" text-anchor="middle" font-size="14px" font-family="sans\-serif:style=normal:variant=normal:weight=normal:stretch=normal:size=10.0">@^0.5</text><circle cx="502.84238281250003" cy="45.0" r="10.0" /><circle cx="502.84238281250003" cy="295.0" r="10.0" /><circle cx="562.8423828125001" cy="45.0" r="10.0" /><rect x="542.8423828125001" y="175.0" width="40" height="40" stroke="black" fill="white" stroke-width="1" /><text x="562.8423828125001" y="195.0" dominant-baseline="middle" text-anchor="middle" font-size="18px" font-family="sans\-serif:style=normal:variant=normal:weight=normal:stretch=normal:size=10.0">X</text><circle cx="633.2929882812501" cy="145.0" r="10.0" /><rect x="602.8423828125001" y="175.0" width="60.9012109375" height="40" stroke="black" fill="white" stroke-width="1" /><text x="633.2929882812501" y="195.0" dominant-baseline="middle" text-anchor="middle" font-size="14px" font-family="sans\-serif:style=normal:variant=normal:weight=normal:stretch=normal:size=10.0">@^0.5</text><circle cx="633.2929882812501" cy="45.0" r="10.0" /><rect x="602.8423828125001" y="75.0" width="60.9012109375" height="40" stroke="black" fill="white" stroke-width="1" /><text x="633.2929882812501" y="95.0" dominant-baseline="middle" text-anchor="middle" font-size="14px" font-family="sans\-serif:style=normal:variant=normal:weight=normal:stretch=normal:size=10.0">@^-0.5</text><circle cx="701.6683203125001" cy="45.0" r="10.0" /><rect x="673.7435937500001" y="125.0" width="55.849453125000004" height="40" stroke="black" fill="white" stroke-width="1" /><text x="701.6683203125001" y="145.0" dominant-baseline="middle" text-anchor="middle" font-size="14px" font-family="sans\-serif:style=normal:variant=normal:weight=normal:stretch=normal:size=10.0">@^0.5</text><rect x="729.593046875" y="75.0" width="40" height="40" stroke="black" fill="white" stroke-width="1" /><text x="749.593046875" y="95.0" dominant-baseline="middle" text-anchor="middle" font-size="18px" font-family="sans\-serif:style=normal:variant=normal:weight=normal:stretch=normal:size=10.0">H</text><rect x="799.593046875" y="125.0" width="80.242265625" height="40" stroke="black" fill="white" stroke-width="1" /><text x="839.7141796875001" y="145.0" dominant-baseline="middle" text-anchor="middle" font-size="18px" font-family="sans\-serif:style=normal:variant=normal:weight=normal:stretch=normal:size=10.0">H</text><rect x="799.593046875" y="25.0" width="80.242265625" height="40" stroke="black" fill="white" stroke-width="1" /><text x="839.7141796875001" y="45.0" dominant-baseline="middle" text-anchor="middle" font-size="14px" font-family="sans\-serif:style=normal:variant=normal:weight=normal:stretch=normal:size=10.0">Ry(-0.02π)</text><rect x="799.593046875" y="75.0" width="80.242265625" height="40" stroke="black" fill="white" stroke-width="1" /><text x="839.7141796875001" y="95.0" dominant-baseline="middle" text-anchor="middle" font-size="18px" font-family="sans\-serif:style=normal:variant=normal:weight=normal:stretch=normal:size=10.0">M</text><rect x="899.8353125" y="25.0" width="40" height="40" stroke="black" fill="white" stroke-width="1" /><text x="919.8353125" y="45.0" dominant-baseline="middle" text-anchor="middle" font-size="18px" font-family="sans\-serif:style=normal:variant=normal:weight=normal:stretch=normal:size=10.0">M</text><rect x="899.8353125" y="125.0" width="40" height="40" stroke="black" fill="white" stroke-width="1" /><text x="919.8353125" y="145.0" dominant-baseline="middle" text-anchor="middle" font-size="18px" font-family="sans\-serif:style=normal:variant=normal:weight=normal:stretch=normal:size=10.0">M</text></svg>