<svg xmlns="http://www.w3.org/2000/svg" width="785.2750781249999" height="100.0"><line x1="30.0" x2="755.2750781249999" y1="25.0" y2="25.0" stroke="#1967d2" stroke-width="1" /><line x1="30.0" x2="755.2750781249999" y1="75.0" y2="75.0" stroke="#1967d2" stroke-width="1" /><line x1="237.05328125" x2="237.05328125" y1="25.0" y2="75.0" stroke="black" stroke-width="3" /><line x1="297.05328125" x2="297.05328125" y1="25.0" y2="75.0" stroke="black" stroke-width="3" /><line x1="357.05328125" x2="357.05328125" y1="25.0" y2="75.0" stroke="black" stroke-width="3" /><line x1="503.1700390625" x2="503.1700390625" y1="25.0" y2="75.0" stroke="black" stroke-width="3" /><line x1="563.1700390625" x2="563.1700390625" y1="25.0" y2="75.0" stroke="black" stroke-width="3" /><line x1="623.1700390625" x2="623.1700390625" y1="25.0" y2="75.0" stroke="black" stroke-width="3" /><rect x="10.0" y="5.0" width="40" height="40" stroke="black" fill="white" stroke-width="0" /><text x="30.0" y="25.0" dominant-baseline="middle" text-anchor="middle" font-size="14px" font-family="Arial">0: </text><rect x="10.0" y="55.0" width="40" height="40" stroke="black" fill="white" stroke-width="0" /><text x="30.0" y="75.0" dominant-baseline="middle" text-anchor="middle" font-size="14px" font-family="Arial">1: </text><rect x="70.0" y="5.0" width="40" height="40" stroke="black" fill="white" stroke-width="1" /><text x="90.0" y="25.0" dominant-baseline="middle" text-anchor="middle" font-size="18px" font-family="Arial">X</text><rect x="70.0" y="55.0" width="40" height="40" stroke="black" fill="white" stroke-width="1" /><text x="90.0" y="75.0" dominant-baseline="middle" text-anchor="middle" font-size="18px" font-family="Arial">X</text><rect x="130.0" y="5.0" width="67.05328125" height="40" stroke="black" fill="white" stroke-width="1" /><text x="163.526640625" y="25.0" dominant-baseline="middle" text-anchor="middle" font-size="14px" font-family="Arial">Rx(0.5π)</text><rect x="130.0" y="55.0" width="67.05328125" height="40" stroke="black" fill="white" stroke-width="1" /><text x="163.526640625" y="75.0" dominant-baseline="middle" text-anchor="middle" font-size="18px" font-family="Arial">H</text><circle cx="237.05328125" cy="25.0" r="10.0" /><rect x="217.05328125" y="55.0" width="40" height="40" stroke="black" fill="white" stroke-width="1" /><text x="237.05328125" y="75.0" dominant-baseline="middle" text-anchor="middle" font-size="18px" font-family="Arial">X</text><circle cx="297.05328125" cy="25.0" r="10.0" /><rect x="277.05328125" y="55.0" width="40" height="40" stroke="black" fill="white" stroke-width="1" /><text x="297.05328125" y="75.0" dominant-baseline="middle" text-anchor="middle" font-size="18px" font-family="Arial">X</text><circle cx="357.05328125" cy="25.0" r="10.0" /><rect x="337.05328125" y="55.0" width="40" height="40" stroke="black" fill="white" stroke-width="1" /><text x="357.05328125" y="75.0" dominant-baseline="middle" text-anchor="middle" font-size="18px" font-family="Arial">X</text><rect x="397.05328124999994" y="55.0" width="66.1167578125" height="40" stroke="black" fill="white" stroke-width="1" /><text x="430.11166015624997" y="75.0" dominant-baseline="middle" text-anchor="middle" font-size="14px" font-family="Arial">Rz(0.1π)</text><circle cx="503.1700390625" cy="25.0" r="10.0" /><rect x="483.1700390625" y="55.0" width="40" height="40" stroke="black" fill="white" stroke-width="1" /><text x="503.1700390625" y="75.0" dominant-baseline="middle" text-anchor="middle" font-size="18px" font-family="Arial">X</text><circle cx="563.1700390625" cy="25.0" r="10.0" /><rect x="543.1700390625" y="55.0" width="40" height="40" stroke="black" fill="white" stroke-width="1" /><text x="563.1700390625" y="75.0" dominant-baseline="middle" text-anchor="middle" font-size="18px" font-family="Arial">X</text><circle cx="623.1700390625" cy="25.0" r="10.0" /><rect x="603.1700390625" y="55.0" width="40" height="40" stroke="black" fill="white" stroke-width="1" /><text x="623.1700390625" y="75.0" dominant-baseline="middle" text-anchor="middle" font-size="18px" font-family="Arial">X</text><rect x="663.1700390625" y="55.0" width="72.1050390625" height="40" stroke="black" fill="white" stroke-width="1" /><text x="699.22255859375" y="75.0" dominant-baseline="middle" text-anchor="middle" font-size="18px" font-family="Arial">H</text><rect x="663.1700390625" y="5.0" width="72.1050390625" height="40" stroke="black" fill="white" stroke-width="1" /><text x="699.22255859375" y="25.0" dominant-baseline="middle" text-anchor="middle" font-size="14px" font-family="Arial">Rx(-0.5π)</text></svg>