<svg xmlns="http://www.w3.org/2000/svg" width="563.0895312499999" height="100.0"><line x1="30.0" x2="533.0895312499999" y1="25.0" y2="25.0" stroke="#1967d2" stroke-width="1" /><line x1="30.0" x2="533.0895312499999" y1="75.0" y2="75.0" stroke="#1967d2" stroke-width="1" /><line x1="237.05328125" x2="237.05328125" y1="25.0" y2="75.0" stroke="black" stroke-width="3" /><line x1="400.9844921875" x2="400.9844921875" y1="25.0" y2="75.0" stroke="black" stroke-width="3" /><rect x="10.0" y="5.0" width="40" height="40" stroke="black" fill="white" stroke-width="0" /><text x="30.0" y="25.0" dominant-baseline="middle" text-anchor="middle" font-size="14px" font-family="Arial">0: </text><rect x="10.0" y="55.0" width="40" height="40" stroke="black" fill="white" stroke-width="0" /><text x="30.0" y="75.0" dominant-baseline="middle" text-anchor="middle" font-size="14px" font-family="Arial">1: </text><rect x="70.0" y="5.0" width="40" height="40" stroke="black" fill="white" stroke-width="1" /><text x="90.0" y="25.0" dominant-baseline="middle" text-anchor="middle" font-size="18px" font-family="Arial">X</text><rect x="70.0" y="55.0" width="40" height="40" stroke="black" fill="white" stroke-width="1" /><text x="90.0" y="75.0" dominant-baseline="middle" text-anchor="middle" font-size="18px" font-family="Arial">X</text><rect x="130.0" y="5.0" width="67.05328125" height="40" stroke="black" fill="white" stroke-width="1" /><text x="163.526640625" y="25.0" dominant-baseline="middle" text-anchor="middle" font-size="14px" font-family="Arial">Rx(0.5π)</text><rect x="130.0" y="55.0" width="67.05328125" height="40" stroke="black" fill="white" stroke-width="1" /><text x="163.526640625" y="75.0" dominant-baseline="middle" text-anchor="middle" font-size="18px" font-family="Arial">H</text><circle cx="237.05328125" cy="25.0" r="10.0" /><rect x="217.05328125" y="55.0" width="40" height="40" stroke="black" fill="white" stroke-width="1" /><text x="237.05328125" y="75.0" dominant-baseline="middle" text-anchor="middle" font-size="18px" font-family="Arial">X</text><rect x="277.05328125" y="55.0" width="83.93121093750001" height="40" stroke="black" fill="white" stroke-width="1" /><text x="319.01888671875" y="75.0" dominant-baseline="middle" text-anchor="middle" font-size="14px" font-family="Arial">Rz(0.053π)</text><circle cx="400.9844921875" cy="25.0" r="10.0" /><rect x="380.9844921875" y="55.0" width="40" height="40" stroke="black" fill="white" stroke-width="1" /><text x="400.9844921875" y="75.0" dominant-baseline="middle" text-anchor="middle" font-size="18px" font-family="Arial">X</text><rect x="440.9844921875" y="55.0" width="72.1050390625" height="40" stroke="black" fill="white" stroke-width="1" /><text x="477.03701171875" y="75.0" dominant-baseline="middle" text-anchor="middle" font-size="18px" font-family="Arial">H</text><rect x="440.9844921875" y="5.0" width="72.1050390625" height="40" stroke="black" fill="white" stroke-width="1" /><text x="477.03701171875" y="25.0" dominant-baseline="middle" text-anchor="middle" font-size="14px" font-family="Arial">Rx(-0.5π)</text></svg>