<svg xmlns="http://www.w3.org/2000/svg" width="485.275078125" height="100.0"><line x1="30.0" x2="455.275078125" y1="25.0" y2="25.0" stroke="#1967d2" stroke-width="1" /><line x1="30.0" x2="455.275078125" y1="75.0" y2="75.0" stroke="#1967d2" stroke-width="1" /><line x1="177.05328125" x2="177.05328125" y1="25.0" y2="75.0" stroke="black" stroke-width="3" /><line x1="323.1700390625" x2="323.1700390625" y1="25.0" y2="75.0" stroke="black" stroke-width="3" /><rect x="10.0" y="5.0" width="40" height="40" stroke="black" fill="white" stroke-width="0" /><text x="30.0" y="25.0" dominant-baseline="middle" text-anchor="middle" font-size="14px" font-family="Arial">0: </text><rect x="10.0" y="55.0" width="40" height="40" stroke="black" fill="white" stroke-width="0" /><text x="30.0" y="75.0" dominant-baseline="middle" text-anchor="middle" font-size="14px" font-family="Arial">1: </text><rect x="70.0" y="5.0" width="67.05328125" height="40" stroke="black" fill="white" stroke-width="1" /><text x="103.526640625" y="25.0" dominant-baseline="middle" text-anchor="middle" font-size="14px" font-family="Arial">Rx(0.5π)</text><rect x="70.0" y="55.0" width="67.05328125" height="40" stroke="black" fill="white" stroke-width="1" /><text x="103.526640625" y="75.0" dominant-baseline="middle" text-anchor="middle" font-size="18px" font-family="Arial">H</text><circle cx="177.05328125" cy="25.0" r="10.0" /><rect x="157.05328125" y="55.0" width="40" height="40" stroke="black" fill="white" stroke-width="1" /><text x="177.05328125" y="75.0" dominant-baseline="middle" text-anchor="middle" font-size="18px" font-family="Arial">X</text><rect x="217.05328125" y="55.0" width="66.1167578125" height="40" stroke="black" fill="white" stroke-width="1" /><text x="250.11166015625" y="75.0" dominant-baseline="middle" text-anchor="middle" font-size="14px" font-family="Arial">Rz(0.1π)</text><circle cx="323.1700390625" cy="25.0" r="10.0" /><rect x="303.1700390625" y="55.0" width="40" height="40" stroke="black" fill="white" stroke-width="1" /><text x="323.1700390625" y="75.0" dominant-baseline="middle" text-anchor="middle" font-size="18px" font-family="Arial">X</text><rect x="363.1700390625" y="5.0" width="72.1050390625" height="40" stroke="black" fill="white" stroke-width="1" /><text x="399.22255859375" y="25.0" dominant-baseline="middle" text-anchor="middle" font-size="14px" font-family="Arial">Rx(-0.5π)</text><rect x="363.1700390625" y="55.0" width="72.1050390625" height="40" stroke="black" fill="white" stroke-width="1" /><text x="399.22255859375" y="75.0" dominant-baseline="middle" text-anchor="middle" font-size="18px" font-family="Arial">H</text></svg>