<svg xmlns="http://www.w3.org/2000/svg" width="734.1823046874999" height="100.0"><line x1="30.0" x2="704.1823046874999" y1="25.0" y2="25.0" stroke="#1967d2" stroke-width="1" /><line x1="30.0" x2="704.1823046874999" y1="75.0" y2="75.0" stroke="#1967d2" stroke-width="1" /><line x1="177.05328125" x2="177.05328125" y1="25.0" y2="75.0" stroke="black" stroke-width="3" /><line x1="237.05328125" x2="237.05328125" y1="25.0" y2="75.0" stroke="black" stroke-width="3" /><line x1="297.05328125" x2="297.05328125" y1="25.0" y2="75.0" stroke="black" stroke-width="3" /><line x1="452.077265625" x2="452.077265625" y1="25.0" y2="75.0" stroke="black" stroke-width="3" /><line x1="512.077265625" x2="512.077265625" y1="25.0" y2="75.0" stroke="black" stroke-width="3" /><line x1="572.077265625" x2="572.077265625" y1="25.0" y2="75.0" stroke="black" stroke-width="3" /><rect x="10.0" y="5.0" width="40" height="40" stroke="black" fill="white" stroke-width="0" /><text x="30.0" y="25.0" dominant-baseline="middle" text-anchor="middle" font-size="14px" font-family="Arial">0: </text><rect x="10.0" y="55.0" width="40" height="40" stroke="black" fill="white" stroke-width="0" /><text x="30.0" y="75.0" dominant-baseline="middle" text-anchor="middle" font-size="14px" font-family="Arial">1: </text><rect x="70.0" y="5.0" width="67.05328125" height="40" stroke="black" fill="white" stroke-width="1" /><text x="103.526640625" y="25.0" dominant-baseline="middle" text-anchor="middle" font-size="14px" font-family="Arial">Rx(0.5π)</text><circle cx="177.05328125" cy="25.0" r="10.0" /><rect x="157.05328125" y="55.0" width="40" height="40" stroke="black" fill="white" stroke-width="1" /><text x="177.05328125" y="75.0" dominant-baseline="middle" text-anchor="middle" font-size="18px" font-family="Arial">X</text><circle cx="237.05328125" cy="25.0" r="10.0" /><rect x="217.05328125" y="55.0" width="40" height="40" stroke="black" fill="white" stroke-width="1" /><text x="237.05328125" y="75.0" dominant-baseline="middle" text-anchor="middle" font-size="18px" font-family="Arial">X</text><circle cx="297.05328125" cy="25.0" r="10.0" /><rect x="277.05328125" y="55.0" width="40" height="40" stroke="black" fill="white" stroke-width="1" /><text x="297.05328125" y="75.0" dominant-baseline="middle" text-anchor="middle" font-size="18px" font-family="Arial">X</text><rect x="337.05328125" y="55.0" width="75.02398437500001" height="40" stroke="black" fill="white" stroke-width="1" /><text x="374.5652734375" y="75.0" dominant-baseline="middle" text-anchor="middle" font-size="14px" font-family="Arial">Rz(0.05π)</text><circle cx="452.077265625" cy="25.0" r="10.0" /><rect x="432.077265625" y="55.0" width="40" height="40" stroke="black" fill="white" stroke-width="1" /><text x="452.077265625" y="75.0" dominant-baseline="middle" text-anchor="middle" font-size="18px" font-family="Arial">X</text><circle cx="512.077265625" cy="25.0" r="10.0" /><rect x="492.077265625" y="55.0" width="40" height="40" stroke="black" fill="white" stroke-width="1" /><text x="512.077265625" y="75.0" dominant-baseline="middle" text-anchor="middle" font-size="18px" font-family="Arial">X</text><circle cx="572.077265625" cy="25.0" r="10.0" /><rect x="552.077265625" y="55.0" width="40" height="40" stroke="black" fill="white" stroke-width="1" /><text x="572.077265625" y="75.0" dominant-baseline="middle" text-anchor="middle" font-size="18px" font-family="Arial">X</text><rect x="612.077265625" y="5.0" width="72.1050390625" height="40" stroke="black" fill="white" stroke-width="1" /><text x="648.12978515625" y="25.0" dominant-baseline="middle" text-anchor="middle" font-size="14px" font-family="Arial">Rx(-0.5π)</text></svg>